<svg version="1.0" xmlns="http://www.w3.org/2000/svg" width="682.667" height="682.667" viewBox="0 0 512 512"><path d="M336.4 36.1c-9.3 11.1-20.9 25-25.9 30.9-4.9 5.8-10.8 12.8-13 15.4-3.6 4.3-4.6 7-10 25.4l-6 20.7-27.5.1c-29.2.1-49.2 1-67 3-5.6.6-19 2.4-21 2.8-14.5 2.9-19.5 4.7-21.3 7.7-1.2 1.9.2 3.6 4.3 5.6 4.1 1.9 13 4.1 19.5 4.8 1.1.2 5.8.7 10.5 1.3 18.8 2.4 42.3 3.6 75 3.6 23 0 54.1-.9 62-1.8 1.9-.3 6.9-.7 11.1-1.1 4.2-.3 8.7-.8 10-1 1.3-.2 4-.6 5.9-.9 11.4-1.5 23.4-5.6 24.4-8.3 2.1-5.3-10.7-9.1-43.4-12.9-6.8-.8-10.2-1.1-16.2-1.3-3.2-.1-4.8-.5-4.8-1.4 0-1.8 8.7-32.3 9.6-33.9.4-.6 10.2-12.5 21.6-26.2 27.9-33.5 32.3-38.9 33.2-40.3 1.7-2.9-5.5-10.5-11-11.7-2.9-.7-3.5-.1-20 19.5zm-54.1 112c1.8.1 4.6.2 6.2.3 1.7 0 4.8-.5 6.9-1.2 4.6-1.4 7.2-.1 3.5 1.8-2.8 1.6-15.9 2.2-20.1.9-4.2-1.2-5.7-2.7-3.9-3.9.9-.5 1.9-.3 2.8.6.8.8 2.9 1.5 4.6 1.5z"/><path d="M145.9 151.9c-.2.7-.2.3.5 8.1.4 3.6.8 8.1 1.1 10 .3 1.9.7 5.3.9 7.5 1.4 12 3.8 32.4 4.1 35 .3 1.6.7 5.7 1.1 9 .9 9.4 1.9 18.2 2.9 26.5.2 1.4.6 5.5 1 9.2.4 3.8 1.1 6.8 1.6 6.8s.9-.5.9-1.1c0-.6 1.7-4.8 3.9-9.4 13.2-28.1 34.4-44.4 49.2-37.8 8.1 3.7 13.9 11.6 12 16.6-2 5.2-6.1 4.3-10-2.1-5.5-9-12.5-8.7-22.3 1-15.9 15.6-28.3 46.4-23.4 58.1 1.3 3.1 2 3.7 4.6 3.7 5.1 0 15.3-7.9 23.3-18 1.9-2.5 4.9-8.3 6.6-12.9 3.5-9.6 4.5-11.1 7.6-11.1 5.5 0 5.5 6.5.2 20.6-1.9 4.9-5.6 15.9-8.2 24.4-5.2 16.7-6.9 20.6-9.6 21.3-5.1 1.4-5.5-4.7-.9-18.6 1.7-5.5 2.9-10.1 2.6-10.5-.3-.3-.6 0-.6.6 0 1.5-13.6 12-17.9 13.8-4.1 1.7-8.4 2.1-12.3 1-2.6-.8-2.7-.7-2.3 2.5.2 1.9.6 6.1 1 9.4.3 3.3.7 7.6 1 9.5.2 1.9.7 6.6 1 10.5.3 3.8.8 8.8 1 11 .7 6.2 1.3 12.4 2 19.5.3 3.6.8 7.5 1 8.6.6 3 7.5 6 21 9.4 10.4 2.6 13.7 3.3 23.8 4.5 2.3.3 5.2.8 6.4 1.1 10.1 2.1 56.9 2.1 67.8 0 1.2-.2 4.8-.7 8-1.1 14.8-1.7 37.8-8 42-11.4 1.1-.9 2.1-2.4 2.1-3.3.4-4 1.4-13.4 1.8-15.3.2-1.1.7-4.7 1-8 .4-3.3 1.1-9.4 1.6-13.5s1.2-9.8 1.5-12.5c.3-2.8.8-6.6 1-8.5.6-4.4 1.2-9.8 2-17.5.4-3.3.9-6.8 1.2-7.9.6-2.3-.2-1.8-7.5 4.1-7.6 6.2-12.8 8.6-18.9 8.7-5.7.1-9.3-2.2-9.3-5.9 0-2.6 4.6-10 9.8-15.7 5-5.6 9.2-11.9 8.6-13-1-1.5-4.7-.8-8.9 1.6-9.1 5.4-18.6 21.1-28.8 47.6-4.9 12.5-7.5 15.8-12 14.6-1.4-.3-2.7-1.4-3-2.4-.5-2.4 3-11.7 9.7-25.1 3.1-6.2 5.6-11.5 5.6-11.8 0-.2-2.4 1.4-5.3 3.6-6 4.6-11.9 7-16 6.5-3.3-.3-5.7-2-5.7-4s-1.1-1.8-6.4 1.2c-9.3 5.2-15 3-14.4-5.4l.3-4.3-4 4.2c-4.8 5.1-11.4 8.2-17.4 8.2-3.7 0-4.9-.5-6.9-2.8-2.1-2.5-2.4-3.6-1.9-7.6.6-5.1 7.2-22.8 11-29.4 2.7-4.8 6.2-6.8 8.8-5.2 1 .6 2 1.6 2.3 2.2.2.6-2.1 6-5 12-3.2 6.6-5.5 12.7-5.7 15l-.2 4 4.2-.1c3.7-.1 4.9-.7 8.2-4.2 4.5-4.8 9.9-13.5 12.5-20.5 1-2.7 2.8-5.9 4-7.3 1.9-2.1 2.4-2.3 4.6-1.1 3.3 1.7 2.9 4.5-2.2 16.1-4.7 10.7-6.1 17.1-4.2 18.7 1.4 1.2 9.1-1.7 11-4.2.6-.8 4.5-10 8.8-20.4 4.3-10.5 8.4-20.4 9.1-22 .7-1.7 3.2-7.5 5.5-13 4.2-10.1 5.9-12.5 9.1-12.5 2.5 0 4.8 2.7 4.4 4.9-.2 1-3.5 9-7.3 17.8-12.8 29.1-18.2 42.5-18.5 45.6-.2 2.8.1 3.2 2.2 2.9 2.4-.2 11.5-6.4 18.3-12.4 2.4-2.2 4.4-5.4 5.9-9.3 3-8.1 4.7-10.5 7.5-10.5s3.9 1.5 3.6 5.3l-.2 2.9 4.1-3.5c9.9-8.5 20.4-9.5 23.4-2.4 2.2 5.4-1.3 12-13.5 25.6-6 6.8-3.3 8.4 4.8 2.9 4.5-3.1 5.9-4.2 12.6-10 1.7-1.5 3.4-2.8 3.8-2.8.6 0 1.6-4.6 2.2-11 .2-1.9.7-6 1-9 .4-3 .8-7.1 1-9 .6-5.7 1.7-15.2 2.2-19.1.3-2 .7-5.9.9-8.5.3-2.7.7-6.9 1-9.4.9-7.3 1.4-11.2 2-16.5.3-2.8.8-6.6 1-8.5.3-1.9.8-6 1.1-9 .3-3 .7-6.6.9-8 .2-1.4.7-5.9 1-10 .4-4.1.9-7.8 1.2-8.3.6-1 .5-1-5.8 1.3-8.5 2.9-27.2 5.9-47.4 7.5-30.9 2.4-89.3 2.4-116.1.1-22-2-36.8-4.4-45.8-7.4-3.1-1-5.7-1.6-5.7-1.3z"/><path d="M180.9 394.2c7.8 12.6 8.4 13.8 8.7 17.8.2 3.4.9 11.8 2 25 .3 3.6.7 8.9.9 11.9.4 5.4 1.2 16.8 2.1 27.4.5 7.2 1.7 9 7.3 11.6 12.6 5.7 31.4 8.1 59.6 7.6 10.5-.2 20.1-.6 21.5-.9 1.4-.3 4.2-.8 6.3-1 11.9-1.6 26.1-7 27.1-10.5.6-1.9 1.3-10 2.1-24.1.3-5.8.8-13.4 1-17 .2-3.6.7-11.5 1-17.5.4-6.1.8-12.5 1-14.4.4-3 6.7-15 11.7-22.4 1.1-1.5 1.8-2.7 1.6-2.7-.2 0-1.9.5-3.8 1.1-17.2 5.2-29.9 7.4-53 9.4-6.8.6-37.7.6-44.5.1-12.2-1.1-18.2-1.6-20.5-2-1.4-.3-4.2-.7-6.3-1-8-1.2-19.4-3.8-24.7-5.7-3-1-5.8-1.9-6.2-1.9-.4 0 1.9 4.2 5.1 9.2z"/></svg>