<svg width="15" height="16" fill="none" xmlns="http://www.w3.org/2000/svg"><path d="M13.585 1.851h-1.487v-.717a.494.494 0 00-.148-.352.509.509 0 00-.714 0 .495.495 0 00-.149.352v.713H3.912v-.713a.495.495 0 00-.148-.352.51.51 0 00-.714 0 .495.495 0 00-.148.352v.713H1.415c-.374 0-.734.147-.999.407s-.415.614-.416.983v1.25h14.996v-1.25a1.385 1.385 0 00-.416-.979 1.426 1.426 0 00-.995-.407zM0 14.228c.001.37.151.723.416.983s.625.407.999.407h12.17c.374 0 .734-.146.999-.407.265-.26.415-.614.416-.983V5.561H0v8.667zm7.075-1.738c.045-.47.185-.924.412-1.339.227-.415.536-.78.909-1.074.7-.724.882-.948.882-1.512 0-.428-.112-.763-.606-.763s-.645.357-.668.927H7.11a1.436 1.436 0 01.41-1.172 1.479 1.479 0 011.177-.436 1.368 1.368 0 011.129.365 1.327 1.327 0 01.398 1.103c0 .669-.202 1.023-.965 1.76a4.326 4.326 0 00-1.119 1.463h2.241l-.125.729H7.075v-.051zM4.677 7.595c.37-.051.72-.2 1.01-.432h.616v5.38H5.38V8.159c-.232.053-.47.082-.707.086l.003-.65z" fill="#030303"/></svg>