<svg width="15" height="12" fill="none" xmlns="http://www.w3.org/2000/svg"><path d="M14.443.48H.555a.495.495 0 00-.213.047.555.555 0 00-.18.138.645.645 0 00-.12.205.71.71 0 00-.042.243v9.72c0 .083.014.166.042.243a.644.644 0 00.12.205.555.555 0 00.18.138c.068.031.14.048.213.047h13.888a.497.497 0 00.213-.047.557.557 0 00.18-.138.646.646 0 00.121-.205.713.713 0 00.043-.243v-9.72a.714.714 0 00-.043-.243.646.646 0 00-.12-.205.556.556 0 00-.181-.138.497.497 0 00-.213-.048zm-.774 2.882L7.839 7.21h-.46L1.552 3.363a.608.608 0 01-.169-.17.748.748 0 01-.04-.73.638.638 0 01.149-.191.55.55 0 01.202-.113.507.507 0 01.437.067l5.477 3.617 5.478-3.617a.506.506 0 01.437-.067c.073.022.141.06.201.113.06.052.111.117.149.192a.72.72 0 01.059.499.702.702 0 01-.099.23.609.609 0 01-.168.17l.004-.001z" fill="#030303"/></svg>