<svg width="86" height="42" fill="none" xmlns="http://www.w3.org/2000/svg"><path d="M0 41.97L42.534.895 85.068 41.97H0zm71.232-.618h12.009l-6-5.782-6.009 5.782zm-13.88 0h12.009l-6-5.782-6.009 5.782zm-13.882 0h12.011l-6.007-5.782-6.004 5.782zm-13.906 0h12.06l-6.03-5.782-6.03 5.782zm-13.95 0h12.01l-6-5.782-6.01 5.782zm-13.8 0h12.11l-6-5.78-6.11 5.78zm34.384-6.369l6.285 6.171 6.339-6.118-6.335-6.133-6.289 6.08zm28.15-.386a.5.5 0 00-.093.65v.127l.091.049 4.643 4.561 1.365 1.154 6.324-6.103-6.191-5.964h-.363l-5.776 5.526zm-42.034.388l6.337 6.116 6.335-6.116-6.335-6.133-6.337 6.133zm27.759 0l6.434 6.114 6.335-6.114-6.335-6.131-6.434 6.131zm-41.639 0l6.333 6.114.445-.42 5.433-5.24a.582.582 0 00.16-.736.611.611 0 00-.187-.213c-1.076-1.014-2.153-2.064-3.233-3.112l-1.614-1.563-1-.963-6.337 6.133zm6.94-6.7l6.432 6.2.195-.343 5.656-5.47a.499.499 0 00.1-.613v-.13l-.1-.085-5.5-5.254a1.485 1.485 0 00-.307-.243l-.2-.12-6.276 6.057zm28.36-.356a.534.534 0 00-.206.361.6.6 0 00.189.445l5.217 5.07c.134.147.3.305.5.48l.212.193 6.331-6.11-6.738-6.456v.707l-5.505 5.31zm13.377.4l6.337 6.117 6.335-6.118-6.335-6.116-6.337 6.116zm-27.856 0l6.329 6.109.514-.459.829-.79c1.48-1.41 3.011-2.868 4.522-4.395a.565.565 0 00.247-.45.609.609 0 00-.241-.5 513.059 513.059 0 01-5-4.817l-.868-.81-6.332 6.111zm-6.94-6.75l6.337 6.114 6.335-6.114-6.335-6.136-6.337 6.136zm13.882 0l6.289 6.101 6.335-6.116-6.289-6.118-6.335 6.133zm13.88 0l6.337 6.099 6.335-6.118-6.337-6.099-6.335 6.118zm-.794-12.591a.284.284 0 01-.07.076 473.75 473.75 0 01-5.592 5.406.487.487 0 00-.105.6v.13l.1.093 5.431 5.253.48.414 6.324-6.087-6.366-6.208-.202.323zm-20.029 5.875l6.322 6.1.4-.324 5.567-5.37a.514.514 0 00.1-.65v-.13l-.1-.08-5.876-5.64-6.413 6.094zm7.331-7.037a.506.506 0 00-.018.689l5.919 5.698 6.337-6.118-6.121-5.877h-.364l-5.753 5.608z" fill="#9D8665"/></svg>