<svg width="14" height="24" fill="none" xmlns="http://www.w3.org/2000/svg"><path d="M12.374.411H1.628a1.66 1.66 0 00-1.15.463A1.554 1.554 0 000 1.986V21.81c.001.417.173.817.478 1.113a1.66 1.66 0 001.15.462h10.746a1.659 1.659 0 001.15-.463A1.55 1.55 0 0014 21.81V1.986c0-.417-.172-.817-.477-1.112a1.658 1.658 0 00-1.15-.463zm-8.429 21.16H2.19a.596.596 0 01-.414-.166.558.558 0 010-.802.596.596 0 01.414-.166h1.755c.155 0 .304.06.414.166a.558.558 0 010 .802.596.596 0 01-.414.166zm0-2.16H2.19a.595.595 0 01-.413-.165.556.556 0 010-.8.595.595 0 01.413-.166h1.755c.155 0 .304.06.413.166a.557.557 0 010 .8.595.595 0 01-.413.166zm0-2.156H2.19a.596.596 0 01-.414-.166.558.558 0 010-.801.596.596 0 01.414-.166h1.755c.155 0 .304.06.414.166a.557.557 0 010 .8.596.596 0 01-.414.167zm0-2.16H2.19a.596.596 0 01-.414-.165.557.557 0 010-.801.596.596 0 01.414-.166h1.755c.155 0 .304.06.414.166a.557.557 0 010 .8.596.596 0 01-.414.167zm3.932 6.477H6.125a.596.596 0 01-.415-.166.558.558 0 010-.801.596.596 0 01.415-.166h1.752c.156 0 .305.06.415.166a.557.557 0 010 .8.596.596 0 01-.415.167zm0-2.16H6.125a.602.602 0 01-.414-.165.565.565 0 01-.171-.4.55.55 0 01.171-.4.586.586 0 01.414-.165h1.752a.602.602 0 01.414.165.565.565 0 01.171.4.55.55 0 01-.171.4.586.586 0 01-.414.166zm0-2.156H6.125a.596.596 0 01-.415-.166.558.558 0 010-.801.596.596 0 01.415-.166h1.752c.156 0 .305.06.415.166a.557.557 0 010 .8.596.596 0 01-.415.167zm0-2.16H6.125a.602.602 0 01-.415-.165.566.566 0 01-.171-.4.55.55 0 01.171-.401.586.586 0 01.415-.166h1.752a.602.602 0 01.415.166.566.566 0 01.171.4.551.551 0 01-.171.4.586.586 0 01-.415.167zm3.933 6.477h-1.755a.596.596 0 01-.414-.166.558.558 0 010-.802.596.596 0 01.414-.166h1.755c.155 0 .304.06.414.166a.557.557 0 010 .802.596.596 0 01-.414.166zm0-2.16h-1.755a.595.595 0 01-.413-.165.556.556 0 010-.8.595.595 0 01.413-.165h1.755c.155 0 .304.06.413.165a.557.557 0 010 .8.595.595 0 01-.413.166zm0-2.156h-1.755a.602.602 0 01-.414-.166.565.565 0 01-.172-.4.55.55 0 01.172-.401.588.588 0 01.414-.166h1.755a.602.602 0 01.414.166.567.567 0 01.172.4.55.55 0 01-.172.4.588.588 0 01-.414.167zm0-2.16h-1.755a.596.596 0 01-.414-.165.557.557 0 010-.801.596.596 0 01.414-.166h1.755c.155 0 .304.06.414.166a.558.558 0 010 .8.596.596 0 01-.414.167zm.623-2.438H1.569V2.26h10.86l.004 10.398z" fill="#030303"/></svg>