<?xml version="1.0" standalone="no"?>
<!DOCTYPE svg PUBLIC "-//W3C//DTD SVG 20010904//EN"
 "http://www.w3.org/TR/2001/REC-SVG-20010904/DTD/svg10.dtd">
<svg version="1.0" xmlns="http://www.w3.org/2000/svg"
 width="512.000000pt" height="512.000000pt" viewBox="0 0 512.000000 512.000000"
 preserveAspectRatio="xMidYMid meet">
<metadata>
Created by potrace 1.14, written by Peter Selinger 2001-2017
</metadata>
<g transform="translate(0.000000,512.000000) scale(0.100000,-0.100000)"
fill="#000000" stroke="none">
<path d="M3364 4759 c-93 -111 -209 -250 -259 -309 -49 -58 -108 -128 -130
-154 -36 -43 -46 -70 -100 -254 l-60 -207 -275 -1 c-292 -1 -492 -10 -670 -30
-56 -6 -190 -24 -210 -28 -145 -29 -195 -47 -213 -77 -12 -19 2 -36 43 -56 41
-19 130 -41 195 -48 11 -2 58 -7 105 -13 188 -24 423 -36 750 -36 230 0 541 9
620 18 19 3 69 7 111 11 42 3 87 8 100 10 13 2 40 6 59 9 114 15 234 56 244
83 21 53 -107 91 -434 129 -68 8 -102 11 -162 13 -32 1 -48 5 -48 14 0 18 87
323 96 339 4 6 102 125 216 262 279 335 323 389 332 403 17 29 -55 105 -110
117 -29 7 -35 1 -200 -195z m-541 -1120 c18 -1 46 -2 62 -3 17 0 48 5 69 12
46 14 72 1 35 -18 -28 -16 -159 -22 -201 -9 -42 12 -57 27 -39 39 9 5 19 3 28
-6 8 -8 29 -15 46 -15z"/>
<path d="M1459 3601 c-2 -7 -2 -3 5 -81 4 -36 8 -81 11 -100 3 -19 7 -53 9
-75 14 -120 38 -324 41 -350 3 -16 7 -57 11 -90 9 -94 19 -182 29 -265 2 -14
6 -55 10 -92 4 -38 11 -68 16 -68 5 0 9 5 9 11 0 6 17 48 39 94 132 281 344
444 492 378 81 -37 139 -116 120 -166 -20 -52 -61 -43 -100 21 -55 90 -125 87
-223 -10 -159 -156 -283 -464 -234 -581 13 -31 20 -37 46 -37 51 0 153 79 233
180 19 25 49 83 66 129 35 96 45 111 76 111 55 0 55 -65 2 -206 -19 -49 -56
-159 -82 -244 -52 -167 -69 -206 -96 -213 -51 -14 -55 47 -9 186 17 55 29 101
26 105 -3 3 -6 0 -6 -6 0 -15 -136 -120 -179 -138 -41 -17 -84 -21 -123 -10
-26 8 -27 7 -23 -25 2 -19 6 -61 10 -94 3 -33 7 -76 10 -95 2 -19 7 -66 10
-105 3 -38 8 -88 10 -110 7 -62 13 -124 20 -195 3 -36 8 -75 10 -86 6 -30 75
-60 210 -94 104 -26 137 -33 238 -45 23 -3 52 -8 64 -11 101 -21 569 -21 678
0 12 2 48 7 80 11 148 17 378 80 420 114 11 9 21 24 21 33 4 40 14 134 18 153
2 11 7 47 10 80 4 33 11 94 16 135 5 41 12 98 15 125 3 28 8 66 10 85 6 44 12
98 20 175 4 33 9 68 12 79 6 23 -2 18 -75 -41 -76 -62 -128 -86 -189 -87 -57
-1 -93 22 -93 59 0 26 46 100 98 157 50 56 92 119 86 130 -10 15 -47 8 -89
-16 -91 -54 -186 -211 -288 -476 -49 -125 -75 -158 -120 -146 -14 3 -27 14
-30 24 -5 24 30 117 97 251 31 62 56 115 56 118 0 2 -24 -14 -53 -36 -60 -46
-119 -70 -160 -65 -33 3 -57 20 -57 40 0 20 -11 18 -64 -12 -93 -52 -150 -30
-144 54 l3 43 -40 -42 c-48 -51 -114 -82 -174 -82 -37 0 -49 5 -69 28 -21 25
-24 36 -19 76 6 51 72 228 110 294 27 48 62 68 88 52 10 -6 20 -16 23 -22 2
-6 -21 -60 -50 -120 -32 -66 -55 -127 -57 -150 l-2 -40 42 1 c37 1 49 7 82 42
45 48 99 135 125 205 10 27 28 59 40 73 19 21 24 23 46 11 33 -17 29 -45 -22
-161 -47 -107 -61 -171 -42 -187 14 -12 91 17 110 42 6 8 45 100 88 204 43
105 84 204 91 220 7 17 32 75 55 130 42 101 59 125 91 125 25 0 48 -27 44 -49
-2 -10 -35 -90 -73 -178 -128 -291 -182 -425 -185 -456 -2 -28 1 -32 22 -29
24 2 115 64 183 124 24 22 44 54 59 93 30 81 47 105 75 105 28 0 39 -15 36
-53 l-2 -29 41 35 c99 85 204 95 234 24 22 -54 -13 -120 -135 -256 -60 -68
-33 -84 48 -29 45 31 59 42 126 100 17 15 34 28 38 28 6 0 16 46 22 110 2 19
7 60 10 90 4 30 8 71 10 90 6 57 17 152 22 191 3 20 7 59 9 85 3 27 7 69 10
94 9 73 14 112 20 165 3 28 8 66 10 85 3 19 8 60 11 90 3 30 7 66 9 80 2 14 7
59 10 100 4 41 9 78 12 83 6 10 5 10 -58 -13 -85 -29 -272 -59 -474 -75 -309
-24 -893 -24 -1161 -1 -220 20 -368 44 -458 74 -31 10 -57 16 -57 13z"/>
<path d="M1809 1178 c78 -126 84 -138 87 -178 2 -34 9 -118 20 -250 3 -36 7
-89 9 -119 4 -54 12 -168 21 -274 5 -72 17 -90 73 -116 126 -57 314 -81 596
-76 105 2 201 6 215 9 14 3 42 8 63 10 119 16 261 70 271 105 6 19 13 100 21
241 3 58 8 134 10 170 2 36 7 115 10 175 4 61 8 125 10 144 4 30 67 150 117
224 11 15 18 27 16 27 -2 0 -19 -5 -38 -11 -172 -52 -299 -74 -530 -94 -68 -6
-377 -6 -445 -1 -122 11 -182 16 -205 20 -14 3 -42 7 -63 10 -80 12 -194 38
-247 57 -30 10 -58 19 -62 19 -4 0 19 -42 51 -92z"/>
</g>
</svg>
