<svg width="38" height="30" viewBox="0 0 38 30" fill="none" xmlns="http://www.w3.org/2000/svg">
<path d="M17.8599 0L3.62988 10.42V19.07L17.8599 29.49C17.8299 7.26 17.8599 18.17 17.8599 0Z" fill="#B3B3B3"/>
<path d="M0 21.9196H7.47V7.55957H0V21.9196Z" fill="#B3B3B3"/>
<path d="M27.0001 29.1401C26.656 29.1409 26.3194 29.0397 26.0329 28.8492C25.7463 28.6588 25.5226 28.3876 25.3901 28.0701C25.2994 27.8574 25.2515 27.6288 25.2491 27.3976C25.2468 27.1663 25.29 26.9369 25.3764 26.7223C25.4628 26.5078 25.5906 26.3124 25.7525 26.1473C25.9144 25.9822 26.1073 25.8506 26.3201 25.7601C27.7345 25.1605 29.0185 24.2909 30.1001 23.2001C32.3329 20.9543 33.5874 17.9169 33.5901 14.7501C33.5794 11.579 32.3139 8.54104 30.0701 6.30012C28.9864 5.20918 27.7032 4.33668 26.2901 3.73012C25.8628 3.54724 25.5252 3.20275 25.351 2.77184C25.1767 2.34094 25.18 1.85861 25.3601 1.43012C25.4464 1.21628 25.5747 1.02197 25.7376 0.85874C25.9004 0.695504 26.0944 0.566677 26.3081 0.479918C26.5217 0.393159 26.7506 0.35024 26.9812 0.353711C27.2117 0.357183 27.4392 0.406974 27.6501 0.500125C31.342 2.07547 34.2783 5.02246 35.8401 8.72012C36.6453 10.6179 37.0602 12.6585 37.0601 14.7201C37.0591 16.7806 36.6478 18.8202 35.8501 20.7201C35.0771 22.5567 33.9527 24.2246 32.5401 25.6301C31.1476 27.064 29.4859 28.2092 27.6501 29.0001C27.4454 29.0909 27.2241 29.1386 27.0001 29.1401Z" fill="#B3B3B3"/>
<path d="M23.6901 22.0801C23.3095 22.0796 22.9408 21.9476 22.6464 21.7064C22.352 21.4652 22.15 21.1297 22.0747 20.7566C21.9993 20.3835 22.0553 19.9959 22.2331 19.6594C22.4108 19.3229 22.6995 19.0581 23.0501 18.9101C23.8657 18.5635 24.5607 17.9838 25.0482 17.2438C25.5356 16.5037 25.7937 15.6362 25.7901 14.7501C25.7936 14.149 25.6745 13.5535 25.4401 13.0001C25.2032 12.4627 24.8635 11.9769 24.4401 11.5701C24.0313 11.1489 23.5459 10.8095 23.0101 10.5701C22.6565 10.3727 22.3884 10.0515 22.2575 9.66825C22.1265 9.28504 22.142 8.86693 22.301 8.49445C22.4599 8.12197 22.751 7.82146 23.1182 7.6508C23.4855 7.48013 23.9029 7.45138 24.2901 7.57008C25.4626 8.07189 26.4951 8.8522 27.2978 9.84332C28.1006 10.8344 28.6494 12.0064 28.8967 13.2577C29.144 14.5089 29.0823 15.8016 28.7169 17.0235C28.3516 18.2455 27.6936 19.3599 26.8001 20.2701C26.0943 20.9834 25.255 21.5508 24.3301 21.9401C24.1283 22.0293 23.9107 22.0769 23.6901 22.0801Z" fill="#B3B3B3"/>
</svg>
